<svg width="167" height="18" viewBox="0 0 167 18" fill="none" xmlns="http://www.w3.org/2000/svg">
<path d="M157.983 17.3519C156.431 17.3519 155.015 16.9919 153.735 16.2719C152.455 15.5359 151.439 14.5199 150.687 13.2239C149.951 11.9119 149.583 10.4399 149.583 8.80792C149.583 7.17592 149.951 5.71192 150.687 4.41592C151.439 3.10392 152.455 2.08792 153.735 1.36792C155.015 0.631916 156.431 0.263916 157.983 0.263916C159.551 0.263916 160.975 0.631916 162.255 1.36792C163.535 2.08792 164.543 3.09592 165.279 4.39192C166.015 5.68792 166.383 7.15992 166.383 8.80792C166.383 10.4559 166.015 11.9279 165.279 13.2239C164.543 14.5199 163.535 15.5359 162.255 16.2719C160.975 16.9919 159.551 17.3519 157.983 17.3519ZM157.983 15.4559C159.151 15.4559 160.199 15.1839 161.127 14.6399C162.071 14.0959 162.807 13.3199 163.335 12.3119C163.879 11.3039 164.151 10.1359 164.151 8.80792C164.151 7.46392 163.879 6.29592 163.335 5.30392C162.807 4.29592 162.079 3.51992 161.151 2.97592C160.223 2.43192 159.167 2.15992 157.983 2.15992C156.799 2.15992 155.743 2.43192 154.815 2.97592C153.887 3.51992 153.151 4.29592 152.607 5.30392C152.079 6.29592 151.815 7.46392 151.815 8.80792C151.815 10.1359 152.079 11.3039 152.607 12.3119C153.151 13.3199 153.887 14.0959 154.815 14.6399C155.759 15.1839 156.815 15.4559 157.983 15.4559Z" fill="white"/>
<path d="M143.191 5.30392C142.727 4.32792 142.055 3.57592 141.175 3.04792C140.295 2.50392 139.271 2.23192 138.103 2.23192C136.935 2.23192 135.879 2.50392 134.935 3.04792C134.007 3.57592 133.271 4.34392 132.727 5.35192C132.199 6.34392 131.935 7.49592 131.935 8.80792C131.935 10.1199 132.199 11.2719 132.727 12.2639C133.271 13.2559 134.007 14.0239 134.935 14.5679C135.879 15.0959 136.935 15.3599 138.103 15.3599C139.735 15.3599 141.079 14.8719 142.135 13.8959C143.191 12.9199 143.807 11.5999 143.983 9.93592H137.311V8.15992H146.311V9.83992C146.183 11.2159 145.751 12.4799 145.015 13.6319C144.279 14.7679 143.311 15.6719 142.111 16.3439C140.911 16.9999 139.575 17.3279 138.103 17.3279C136.551 17.3279 135.135 16.9679 133.855 16.2479C132.575 15.5119 131.559 14.4959 130.807 13.1999C130.071 11.9039 129.703 10.4399 129.703 8.80792C129.703 7.17592 130.071 5.71192 130.807 4.41592C131.559 3.10392 132.575 2.08792 133.855 1.36792C135.135 0.631916 136.551 0.263916 138.103 0.263916C139.879 0.263916 141.447 0.703917 142.807 1.58392C144.183 2.46392 145.183 3.70392 145.807 5.30392H143.191Z" fill="white"/>
<path d="M118.036 17.3519C116.484 17.3519 115.068 16.9919 113.788 16.2719C112.508 15.5359 111.492 14.5199 110.74 13.2239C110.004 11.9119 109.636 10.4399 109.636 8.80792C109.636 7.17592 110.004 5.71192 110.74 4.41592C111.492 3.10392 112.508 2.08792 113.788 1.36792C115.068 0.631916 116.484 0.263916 118.036 0.263916C119.604 0.263916 121.028 0.631916 122.308 1.36792C123.588 2.08792 124.596 3.09592 125.332 4.39192C126.068 5.68792 126.436 7.15992 126.436 8.80792C126.436 10.4559 126.068 11.9279 125.332 13.2239C124.596 14.5199 123.588 15.5359 122.308 16.2719C121.028 16.9919 119.604 17.3519 118.036 17.3519ZM118.036 15.4559C119.204 15.4559 120.252 15.1839 121.18 14.6399C122.124 14.0959 122.86 13.3199 123.388 12.3119C123.932 11.3039 124.204 10.1359 124.204 8.80792C124.204 7.46392 123.932 6.29592 123.388 5.30392C122.86 4.29592 122.132 3.51992 121.204 2.97592C120.276 2.43192 119.22 2.15992 118.036 2.15992C116.852 2.15992 115.796 2.43192 114.868 2.97592C113.94 3.51992 113.204 4.29592 112.66 5.30392C112.132 6.29592 111.868 7.46392 111.868 8.80792C111.868 10.1359 112.132 11.3039 112.66 12.3119C113.204 13.3199 113.94 14.0959 114.868 14.6399C115.812 15.1839 116.868 15.4559 118.036 15.4559Z" fill="white"/>
<path d="M101.076 15.4081H106.932V17.1841H98.8923V0.456055H101.076V15.4081Z" fill="white"/>
<path d="M82.9502 4.03192V6.79192H88.3502V10.3679H82.9502V13.4159H89.0702V17.1839H78.2462V0.263916H89.0702V4.03192H82.9502Z" fill="white"/>
<path d="M69.9611 13.5839H75.2171V17.1839H65.2571V0.263916H69.9611V13.5839Z" fill="white"/>
<path d="M62.1673 5.90392C62.1673 6.92792 61.9273 7.86392 61.4473 8.71192C60.9833 9.54392 60.2713 10.2159 59.3113 10.7279C58.3673 11.2239 57.2073 11.4719 55.8313 11.4719H53.5033V17.1839H48.7993V0.263916H55.8313C57.1913 0.263916 58.3433 0.503916 59.2873 0.983916C60.2473 1.46392 60.9673 2.12792 61.4473 2.97592C61.9273 3.82392 62.1673 4.79992 62.1673 5.90392ZM55.3753 7.72792C56.7033 7.72792 57.3673 7.11992 57.3673 5.90392C57.3673 4.67192 56.7033 4.05592 55.3753 4.05592H53.5033V7.72792H55.3753Z" fill="white"/>
<path d="M44.9217 0.263916V17.1839H40.2177V7.84792L37.0257 17.1839H33.0897L29.8737 7.77592V17.1839H25.1697V0.263916H30.8577L35.1057 11.2559L39.2577 0.263916H44.9217Z" fill="white"/>
<path d="M21.2908 0.263916V17.1839H16.5868V0.263916H21.2908Z" fill="white"/>
<path d="M6.888 17.352C4.92 17.352 3.304 16.888 2.04 15.96C0.776 15.016 0.096 13.672 0 11.928H5.016C5.064 12.52 5.24 12.952 5.544 13.224C5.848 13.496 6.24 13.632 6.72 13.632C7.152 13.632 7.504 13.528 7.776 13.32C8.064 13.096 8.208 12.792 8.208 12.408C8.208 11.912 7.976 11.528 7.512 11.256C7.048 10.984 6.296 10.68 5.256 10.344C4.152 9.976 3.256 9.624 2.568 9.288C1.896 8.936 1.304 8.432 0.792 7.776C0.296 7.104 0.048 6.232 0.048 5.16C0.048 4.072 0.32 3.144 0.864 2.376C1.408 1.592 2.16 0.999999 3.12 0.599998C4.08 0.199999 5.168 0 6.384 0C8.352 0 9.92 0.463999 11.088 1.392C12.272 2.304 12.904 3.592 12.984 5.256H7.872C7.856 4.744 7.696 4.36 7.392 4.104C7.104 3.848 6.728 3.72 6.264 3.72C5.912 3.72 5.624 3.824 5.4 4.032C5.176 4.24 5.064 4.536 5.064 4.92C5.064 5.24 5.184 5.52 5.424 5.76C5.68 5.984 5.992 6.184 6.36 6.36C6.728 6.52 7.272 6.728 7.992 6.984C9.064 7.352 9.944 7.72 10.632 8.088C11.336 8.44 11.936 8.944 12.432 9.6C12.944 10.24 13.2 11.056 13.2 12.048C13.2 13.056 12.944 13.96 12.432 14.76C11.936 15.56 11.208 16.192 10.248 16.656C9.304 17.12 8.184 17.352 6.888 17.352Z" fill="white"/>
</svg>
