<svg width="168" height="19" viewBox="0 0 168 19" fill="none" xmlns="http://www.w3.org/2000/svg">
<path d="M158.823 18.1678C157.271 18.1678 155.855 17.8078 154.575 17.0878C153.295 16.3518 152.279 15.3358 151.527 14.0398C150.791 12.7278 150.423 11.2558 150.423 9.62384C150.423 7.99184 150.791 6.52783 151.527 5.23184C152.279 3.91984 153.295 2.90383 154.575 2.18383C155.855 1.44783 157.271 1.07983 158.823 1.07983C160.391 1.07983 161.815 1.44783 163.095 2.18383C164.375 2.90383 165.383 3.91183 166.119 5.20783C166.855 6.50383 167.223 7.97584 167.223 9.62384C167.223 11.2718 166.855 12.7438 166.119 14.0398C165.383 15.3358 164.375 16.3518 163.095 17.0878C161.815 17.8078 160.391 18.1678 158.823 18.1678ZM158.823 16.2718C159.991 16.2718 161.039 15.9998 161.967 15.4558C162.911 14.9118 163.647 14.1358 164.175 13.1278C164.719 12.1198 164.991 10.9518 164.991 9.62384C164.991 8.27984 164.719 7.11183 164.175 6.11983C163.647 5.11183 162.919 4.33583 161.991 3.79183C161.063 3.24783 160.007 2.97583 158.823 2.97583C157.639 2.97583 156.583 3.24783 155.655 3.79183C154.727 4.33583 153.991 5.11183 153.447 6.11983C152.919 7.11183 152.655 8.27984 152.655 9.62384C152.655 10.9518 152.919 12.1198 153.447 13.1278C153.991 14.1358 154.727 14.9118 155.655 15.4558C156.599 15.9998 157.655 16.2718 158.823 16.2718Z" fill="#3E4041"/>
<path d="M144.031 6.11983C143.567 5.14383 142.895 4.39183 142.015 3.86383C141.135 3.31983 140.111 3.04783 138.943 3.04783C137.775 3.04783 136.719 3.31983 135.775 3.86383C134.847 4.39183 134.111 5.15983 133.567 6.16783C133.039 7.15983 132.775 8.31184 132.775 9.62384C132.775 10.9358 133.039 12.0878 133.567 13.0798C134.111 14.0718 134.847 14.8398 135.775 15.3838C136.719 15.9118 137.775 16.1758 138.943 16.1758C140.575 16.1758 141.919 15.6878 142.975 14.7118C144.031 13.7358 144.647 12.4158 144.823 10.7518H138.151V8.97583H147.151V10.6558C147.023 12.0318 146.591 13.2958 145.855 14.4478C145.119 15.5838 144.151 16.4878 142.951 17.1598C141.751 17.8158 140.415 18.1438 138.943 18.1438C137.391 18.1438 135.975 17.7838 134.695 17.0638C133.415 16.3278 132.399 15.3118 131.647 14.0158C130.911 12.7198 130.543 11.2558 130.543 9.62384C130.543 7.99184 130.911 6.52783 131.647 5.23184C132.399 3.91984 133.415 2.90383 134.695 2.18383C135.975 1.44783 137.391 1.07983 138.943 1.07983C140.719 1.07983 142.287 1.51983 143.647 2.39983C145.023 3.27983 146.023 4.51983 146.647 6.11983H144.031Z" fill="#3E4041"/>
<path d="M118.876 18.1678C117.324 18.1678 115.908 17.8078 114.628 17.0878C113.348 16.3518 112.332 15.3358 111.58 14.0398C110.844 12.7278 110.476 11.2558 110.476 9.62384C110.476 7.99184 110.844 6.52783 111.58 5.23184C112.332 3.91984 113.348 2.90383 114.628 2.18383C115.908 1.44783 117.324 1.07983 118.876 1.07983C120.444 1.07983 121.868 1.44783 123.148 2.18383C124.428 2.90383 125.436 3.91183 126.172 5.20783C126.908 6.50383 127.276 7.97584 127.276 9.62384C127.276 11.2718 126.908 12.7438 126.172 14.0398C125.436 15.3358 124.428 16.3518 123.148 17.0878C121.868 17.8078 120.444 18.1678 118.876 18.1678ZM118.876 16.2718C120.044 16.2718 121.092 15.9998 122.02 15.4558C122.964 14.9118 123.7 14.1358 124.228 13.1278C124.772 12.1198 125.044 10.9518 125.044 9.62384C125.044 8.27984 124.772 7.11183 124.228 6.11983C123.7 5.11183 122.972 4.33583 122.044 3.79183C121.116 3.24783 120.06 2.97583 118.876 2.97583C117.692 2.97583 116.636 3.24783 115.708 3.79183C114.78 4.33583 114.044 5.11183 113.5 6.11983C112.972 7.11183 112.708 8.27984 112.708 9.62384C112.708 10.9518 112.972 12.1198 113.5 13.1278C114.044 14.1358 114.78 14.9118 115.708 15.4558C116.652 15.9998 117.708 16.2718 118.876 16.2718Z" fill="#3E4041"/>
<path d="M101.916 16.224H107.772V18H99.7323V1.27197H101.916V16.224Z" fill="#3E4041"/>
<path d="M83.7902 4.84783V7.60783H89.1902V11.1838H83.7902V14.2318H89.9102V17.9998H79.0862V1.07983H89.9102V4.84783H83.7902Z" fill="#3E4041"/>
<path d="M70.801 14.3998H76.057V17.9998H66.097V1.07983H70.801V14.3998Z" fill="#3E4041"/>
<path d="M63.0073 6.71983C63.0073 7.74383 62.7673 8.67983 62.2873 9.52783C61.8233 10.3598 61.1113 11.0318 60.1513 11.5438C59.2073 12.0398 58.0473 12.2878 56.6713 12.2878H54.3433V17.9998H49.6393V1.07983H56.6713C58.0313 1.07983 59.1833 1.31983 60.1273 1.79983C61.0873 2.27983 61.8073 2.94383 62.2873 3.79183C62.7673 4.63983 63.0073 5.61583 63.0073 6.71983ZM56.2153 8.54383C57.5433 8.54383 58.2073 7.93583 58.2073 6.71983C58.2073 5.48783 57.5433 4.87183 56.2153 4.87183H54.3433V8.54383H56.2153Z" fill="#3E4041"/>
<path d="M45.7616 1.07983V17.9998H41.0576V8.66383L37.8656 17.9998H33.9296L30.7136 8.59183V17.9998H26.0096V1.07983H31.6976L35.9456 12.0718L40.0976 1.07983H45.7616Z" fill="#3E4041"/>
<path d="M22.1308 1.07983V17.9998H17.4268V1.07983H22.1308Z" fill="#3E4041"/>
<path d="M7.72797 18.1679C5.75997 18.1679 4.14397 17.7039 2.87997 16.7759C1.61597 15.8319 0.935966 14.4879 0.839966 12.7439H5.85597C5.90397 13.3359 6.07997 13.7679 6.38397 14.0399C6.68797 14.3119 7.07997 14.4479 7.55997 14.4479C7.99197 14.4479 8.34397 14.3439 8.61597 14.1359C8.90397 13.9119 9.04797 13.6079 9.04797 13.2239C9.04797 12.7279 8.81597 12.3439 8.35197 12.0719C7.88797 11.7999 7.13597 11.4959 6.09597 11.1599C4.99197 10.7919 4.09597 10.4399 3.40797 10.1039C2.73597 9.75192 2.14397 9.24792 1.63197 8.59192C1.13597 7.91992 0.887966 7.04792 0.887966 5.97592C0.887966 4.88792 1.15997 3.95992 1.70397 3.19192C2.24797 2.40792 2.99997 1.81592 3.95997 1.41592C4.91997 1.01592 6.00797 0.815918 7.22397 0.815918C9.19197 0.815918 10.76 1.27992 11.928 2.20792C13.112 3.11992 13.744 4.40792 13.824 6.07192H8.71197C8.69597 5.55992 8.53597 5.17592 8.23197 4.91992C7.94397 4.66392 7.56797 4.53592 7.10397 4.53592C6.75197 4.53592 6.46397 4.63992 6.23997 4.84792C6.01597 5.05592 5.90397 5.35192 5.90397 5.73592C5.90397 6.05592 6.02397 6.33592 6.26397 6.57592C6.51997 6.79992 6.83197 6.99992 7.19997 7.17592C7.56797 7.33592 8.11197 7.54392 8.83197 7.79992C9.90397 8.16792 10.784 8.53592 11.472 8.90392C12.176 9.25592 12.776 9.75992 13.272 10.4159C13.784 11.0559 14.04 11.8719 14.04 12.8639C14.04 13.8719 13.784 14.7759 13.272 15.5759C12.776 16.3759 12.048 17.0079 11.088 17.4719C10.144 17.9359 9.02397 18.1679 7.72797 18.1679Z" fill="#3E4041"/>
</svg>
